<svg width="24" height="24" viewBox="0 0 24 24" xmlns="http://www.w3.org/2000/svg">
  <!-- Main "C" letter with original colors and better proportions -->
  <path d="M3 4 Q12 2 21 4 Q19 18 12 20 Q5 18 3 4" fill="white"/>
  <!-- Inner shadow/bevel effect -->
  <path d="M5 6 Q12 4 19 6 Q17 16 12 18 Q7 16 5 6" fill="#CCCCCC"/>
  <!-- Maroon/burgundy outline -->
  <path d="M2 3 Q12 1 22 3 L21 21 Q12 23 3 21 Z" fill="none" stroke="#8B0000" stroke-width="0.8"/>
  <!-- Gold/tan outline -->
  <path d="M1 2 Q12 0 23 2 L22 22 Q12 24 2 22 Z" fill="none" stroke="#DAA520" stroke-width="0.5"/>
  <!-- CHARLESTON text bar -->
  <rect x="5" y="10" width="14" height="3" fill="#8B0000"/>
  <!-- CHARLESTON text -->
  <text x="12" y="12" text-anchor="middle" font-family="Arial, sans-serif" font-size="2" font-weight="bold" fill="white">CHARLESTON</text>
</svg>
