<svg width="24" height="24" viewBox="0 0 24 24" xmlns="http://www.w3.org/2000/svg">
  <g fill="#1B365D">
    <!-- Shield with more detailed shape -->
    <path d="M3 6 Q12 2 21 6 L20 20 Q12 22 4 20 Z"/>
    <!-- Torch base (more detailed) -->
    <path d="M10 14 Q12 12 14 14 Q12 16 10 14"/>
    <!-- Torch cup (more detailed) -->
    <path d="M9 12 Q12 10 15 12 Q12 14 9 12"/>
    <!-- Torch handle -->
    <path d="M11 15 Q12 14 13 15 Q12 16 11 15"/>
    <!-- Flame/leaf with more detail -->
    <path d="M10 8 Q12 6 14 8 Q13 10 11 10 Q10 9 10 8"/>
    <!-- Additional flame detail -->
    <path d="M11 6 Q12 5 13 6 Q12 7 11 6"/>
    <!-- Cross cutout (white negative space) -->
    <path d="M11.5 7.5 L12.5 7.5 L12.5 9.5 L11.5 9.5 Z" fill="white"/>
    <path d="M11 8.5 L13 8.5 L13 8.5 L11 8.5 Z" fill="white"/>
  </g>
</svg>
